<svg xmlns="http://www.w3.org/2000/svg" viewBox="0 0 1024 1024" role="img" aria-label="Privado">
  <defs>
    <linearGradient id="bg" x1="0" y1="0" x2="1" y2="1">
      <stop offset="0%" stop-color="#1b2147"/>
      <stop offset="58%" stop-color="#12284e"/>
      <stop offset="100%" stop-color="#0a1834"/>
    </linearGradient>
    <radialGradient id="ambient" cx="54%" cy="28%" r="70%">
      <stop offset="0%" stop-color="#32539a" stop-opacity="0.34"/>
      <stop offset="58%" stop-color="#193760" stop-opacity="0.1"/>
      <stop offset="100%" stop-color="#08122a" stop-opacity="0"/>
    </radialGradient>
    <linearGradient id="bar" x1="0" y1="1" x2="0" y2="0">
      <stop offset="0%" stop-color="#1fb3ff"/>
      <stop offset="100%" stop-color="#86ff87"/>
    </linearGradient>
    <linearGradient id="arrow" x1="0" y1="1" x2="1" y2="0">
      <stop offset="0%" stop-color="#35c2ff"/>
      <stop offset="100%" stop-color="#a1ff74"/>
    </linearGradient>
    <filter id="shadow" x="-20%" y="-20%" width="140%" height="140%">
      <feDropShadow dx="0" dy="18" stdDeviation="22" flood-color="#040914" flood-opacity="0.5"/>
    </filter>
    <filter id="glow" x="-30%" y="-30%" width="160%" height="160%">
      <feDropShadow dx="0" dy="0" stdDeviation="16" flood-color="#67f4ff" flood-opacity="0.42"/>
    </filter>
  </defs>

  <rect x="86" y="86" width="852" height="852" rx="188" fill="url(#bg)" filter="url(#shadow)"/>
  <rect x="86" y="86" width="852" height="852" rx="188" fill="url(#ambient)"/>

  <g opacity="0.9" filter="url(#glow)">
    <circle cx="688" cy="214" r="8" fill="#72f7ff"/>
    <circle cx="618" cy="266" r="6" fill="#72f7ff"/>
    <circle cx="562" cy="334" r="5" fill="#72f7ff"/>
    <circle cx="458" cy="290" r="4" fill="#72f7ff"/>
    <circle cx="362" cy="406" r="6" fill="#72f7ff"/>
    <circle cx="314" cy="452" r="4" fill="#72f7ff"/>
  </g>

  <path d="M178 742C298 866 595 888 834 610" fill="none" stroke="#28c2ff" stroke-width="38" stroke-linecap="round" opacity="0.96" filter="url(#glow)"/>

  <g filter="url(#shadow)">
    <rect x="300" y="560" width="90" height="150" rx="24" fill="url(#bar)" opacity="0.92"/>
    <rect x="438" y="482" width="96" height="228" rx="24" fill="url(#bar)" opacity="0.96"/>
    <rect x="576" y="446" width="104" height="264" rx="24" fill="url(#bar)"/>
    <rect x="720" y="352" width="98" height="358" rx="24" fill="url(#bar)"/>
  </g>

  <g filter="url(#glow)">
    <polyline points="216,674 418,412 588,492 746,298" fill="none" stroke="url(#arrow)" stroke-width="64" stroke-linecap="round" stroke-linejoin="round"/>
    <path d="M696 248L882 208L836 390L770 332Z" fill="url(#arrow)"/>
  </g>
</svg>